<svg width="19" height="22" viewBox="0 0 19 22" fill="none" xmlns="http://www.w3.org/2000/svg">
<path d="M17.7716 14.9989C17.6938 14.9052 17.6174 14.8114 17.5424 14.7209C16.5111 13.4736 15.8872 12.7208 15.8872 9.18969C15.8872 7.36156 15.4499 5.86156 14.5879 4.73656C13.9522 3.90547 13.093 3.275 11.9605 2.80906C11.9459 2.80096 11.9329 2.79032 11.9221 2.77766C11.5147 1.41359 10.4 0.5 9.14286 0.5C7.88567 0.5 6.77145 1.41359 6.36411 2.77625C6.35325 2.78847 6.34042 2.79877 6.32614 2.80672C3.68332 3.89469 2.39895 5.98203 2.39895 9.18828C2.39895 12.7208 1.77598 13.4736 0.743793 14.7195C0.668793 14.81 0.592386 14.9019 0.514574 14.9975C0.313574 15.2399 0.186224 15.5348 0.147596 15.8473C0.108967 16.1598 0.160677 16.4769 0.296605 16.7609C0.585824 17.3703 1.20223 17.7486 1.90582 17.7486H16.385C17.0854 17.7486 17.6975 17.3708 17.9877 16.7642C18.1242 16.4801 18.1764 16.1628 18.1381 15.8499C18.0998 15.537 17.9726 15.2417 17.7716 14.9989ZM9.14286 21.5C9.82022 21.4995 10.4848 21.3156 11.0661 20.9679C11.6474 20.6202 12.1238 20.1217 12.4447 19.5252C12.4598 19.4966 12.4673 19.4646 12.4664 19.4322C12.4655 19.3999 12.4562 19.3684 12.4395 19.3407C12.4228 19.313 12.3993 19.2901 12.3711 19.2742C12.3429 19.2583 12.3111 19.25 12.2788 19.25H6.00786C5.97548 19.2499 5.94362 19.2582 5.91539 19.274C5.88716 19.2899 5.86351 19.3128 5.84676 19.3405C5.83 19.3682 5.8207 19.3997 5.81977 19.4321C5.81884 19.4645 5.82631 19.4965 5.84145 19.5252C6.16232 20.1216 6.63863 20.6201 7.21986 20.9678C7.80109 21.3155 8.46557 21.4994 9.14286 21.5Z" fill="black"/>
</svg>
