<svg width="19" height="23" viewBox="0 0 19 23" fill="none" xmlns="http://www.w3.org/2000/svg">
<path d="M18.6006 15.7211C18.5185 15.6221 18.4379 15.5231 18.3588 15.4276C17.2712 14.111 16.6132 13.3164 16.6132 9.5891C16.6132 7.65942 16.1519 6.07608 15.2428 4.88858C14.5724 4.01132 13.6662 3.34582 12.4718 2.854C12.4564 2.84544 12.4427 2.83422 12.4313 2.82085C12.0017 1.38101 10.826 0.416656 9.50012 0.416656C8.17421 0.416656 6.99908 1.38101 6.56947 2.81936C6.55802 2.83226 6.54449 2.84314 6.52942 2.85153C3.74214 3.99994 2.38755 6.20325 2.38755 9.58762C2.38755 13.3164 1.73053 14.111 0.641918 15.4262C0.562818 15.5217 0.482235 15.6186 0.400168 15.7196C0.188181 15.9754 0.0538694 16.2867 0.0131292 16.6166C-0.0276111 16.9465 0.0269252 17.2812 0.170284 17.581C0.475313 18.2242 1.12542 18.6235 1.86747 18.6235H17.1382C17.8768 18.6235 18.5225 18.2247 18.8285 17.5844C18.9725 17.2845 19.0275 16.9496 18.9871 16.6194C18.9467 16.2891 18.8126 15.9773 18.6006 15.7211ZM9.50012 22.5833C10.2145 22.5827 10.9154 22.3887 11.5285 22.0217C12.1416 21.6547 12.644 21.1284 12.9825 20.4988C12.9984 20.4686 13.0063 20.4348 13.0054 20.4007C13.0044 20.3666 12.9946 20.3333 12.977 20.304C12.9594 20.2748 12.9345 20.2506 12.9048 20.2339C12.8751 20.2171 12.8416 20.2083 12.8075 20.2083H6.19374C6.1596 20.2082 6.126 20.2169 6.09622 20.2337C6.06645 20.2504 6.04151 20.2746 6.02384 20.3038C6.00617 20.3331 5.99636 20.3664 5.99538 20.4006C5.9944 20.4347 6.00228 20.4686 6.01824 20.4988C6.35666 21.1283 6.859 21.6545 7.472 22.0215C8.08501 22.3885 8.78582 22.5827 9.50012 22.5833Z" fill="black"/>
<circle cx="14.7684" cy="5.69444" r="3.69444" fill="#5F33E1"/>
</svg>
